<svg width="565" height="92" viewBox="0 0 565 92" fill="none" xmlns="http://www.w3.org/2000/svg">
<rect width="565" height="28" fill="white"/>
<rect width="80.7143" height="24" fill="white"/>
<path opacity="0.5" d="M37.9845 10.576H38.9805V12.508H37.9845V10.576ZM42.9645 6.088H43.9605V12.472H42.9645V6.088ZM35.1645 10.912L35.0445 10.168C37.1325 10.168 39.7845 10.156 42.1005 9.892L42.1605 10.54C39.7845 10.888 37.1925 10.912 35.1645 10.912ZM36.6885 12.868H43.9605V15.124H37.6845V16.348H36.7125V14.464H42.9765V13.588H36.6885V12.868ZM36.7125 16.096H44.3205V16.816H36.7125V16.096ZM40.8045 11.248H43.2765V11.896H40.8045V11.248ZM38.5485 6.292C40.1565 6.292 41.2125 6.916 41.2125 7.924C41.2125 8.932 40.1565 9.556 38.5485 9.556C36.9285 9.556 35.8725 8.932 35.8725 7.924C35.8725 6.916 36.9285 6.292 38.5485 6.292ZM38.5485 6.988C37.4805 6.988 36.7965 7.348 36.7965 7.924C36.7965 8.5 37.4805 8.86 38.5485 8.86C39.5925 8.86 40.2765 8.5 40.2765 7.924C40.2765 7.348 39.5925 6.988 38.5485 6.988Z" fill="black"/>
<rect width="80.7143" height="24" transform="translate(80.7142)" fill="white"/>
<path opacity="0.5" d="M118.603 12.556H119.599V14.32H118.603V12.556ZM123.163 6.088H124.159V16.936H123.163V6.088ZM123.835 10.696H125.839V11.536H123.835V10.696ZM115.807 14.872L115.663 14.044C117.607 14.044 120.259 14.02 122.503 13.696L122.587 14.44C120.247 14.86 117.703 14.872 115.807 14.872ZM115.843 7.396H122.335V8.2H115.843V7.396ZM119.095 8.836C120.607 8.836 121.651 9.628 121.651 10.84C121.651 12.064 120.607 12.844 119.095 12.844C117.583 12.844 116.551 12.064 116.551 10.84C116.551 9.628 117.583 8.836 119.095 8.836ZM119.095 9.604C118.123 9.604 117.487 10.096 117.487 10.84C117.487 11.584 118.123 12.076 119.095 12.076C120.067 12.076 120.715 11.584 120.715 10.84C120.715 10.096 120.067 9.604 119.095 9.604ZM118.603 6.1H119.599V7.936H118.603V6.1Z" fill="black"/>
<rect width="80.7143" height="24" transform="translate(161.428)" fill="white"/>
<path opacity="0.5" d="M200.889 6.472H201.765V7.072C201.765 9.148 199.653 10.636 197.397 11.02L197.001 10.216C198.981 9.916 200.889 8.62 200.889 7.072V6.472ZM201.069 6.472H201.933V7.072C201.933 8.584 203.865 9.916 205.821 10.216L205.425 11.02C203.193 10.636 201.069 9.124 201.069 7.072V6.472ZM200.889 12.808H201.873V16.936H200.889V12.808ZM196.509 12.196H206.313V13.024H196.509V12.196Z" fill="black"/>
<rect width="80.7143" height="24" transform="translate(242.143)" fill="white"/>
<path opacity="0.5" d="M278.471 6.532H285.767V10.228H278.471V6.532ZM284.783 7.336H279.443V9.424H284.783V7.336ZM277.211 11.584H287.015V12.388H277.211V11.584ZM281.627 10.012H282.611V11.884H281.627V10.012ZM278.303 13.504H285.803V16.936H284.807V14.32H278.303V13.504Z" fill="black"/>
<rect width="80.7143" height="24" transform="translate(322.857)" fill="white"/>
<path opacity="0.5" d="M359.186 6.652H366.17V7.468H359.186V6.652ZM357.938 10.648H367.766V11.464H357.938V10.648ZM365.522 6.652H366.494V7.456C366.494 8.38 366.494 9.436 366.134 10.936L365.162 10.888C365.522 9.4 365.522 8.356 365.522 7.456V6.652ZM359.138 12.94H366.53V16.792H359.138V12.94ZM365.558 13.732H360.11V15.988H365.558V13.732Z" fill="black"/>
<rect width="80.7143" height="24" transform="translate(403.571)" fill="white"/>
<path opacity="0.5" d="M439.912 11.716H447.364V12.52H439.912V11.716ZM438.652 14.764H448.48V15.592H438.652V14.764ZM443.056 12.136H444.04V15.148H443.056V12.136ZM439.912 6.964H447.244V7.78H440.92V12.016H439.912V6.964ZM440.596 9.292H447.016V10.096H440.596V9.292Z" fill="black"/>
<rect width="80.7143" height="24" transform="translate(484.286)" fill="white"/>
<path opacity="0.5" d="M522.402 6.484C524.022 6.484 525.21 7.468 525.21 8.896C525.21 10.312 524.022 11.296 522.402 11.296C520.794 11.296 519.606 10.312 519.606 8.896C519.606 7.468 520.794 6.484 522.402 6.484ZM522.402 7.3C521.358 7.3 520.566 7.96 520.566 8.896C520.566 9.832 521.358 10.48 522.402 10.48C523.458 10.48 524.238 9.832 524.238 8.896C524.238 7.96 523.458 7.3 522.402 7.3ZM527.25 6.088H528.258V11.644H527.25V6.088ZM521.238 12.172H528.258V14.812H522.234V16.444H521.262V14.068H527.274V12.976H521.238V12.172ZM521.262 16H528.618V16.792H521.262V16Z" fill="black"/>
<g clip-path="url(#clip0_436_1425)">
<rect width="565" height="64" transform="translate(0 28)" fill="white"/>
<rect width="80.7143" height="64" transform="translate(0 28)" fill="white"/>
<rect width="80.7143" height="64" transform="translate(80.7142 28)" fill="white"/>
<rect x="82.7142" y="30" width="76.7143" height="14" rx="2" fill="#FFF3CA"/>
<path d="M92.3782 33.392H93.0502V37.136H92.3782V33.392ZM88.3302 37.488H93.0502V39.232H89.0022V40.32H88.3542V38.736H92.3862V38.016H88.3302V37.488ZM88.3542 40.016H93.3142V40.544H88.3542V40.016ZM87.4342 33.88H91.3142V34.408H87.4342V33.88ZM87.3062 36.896L87.2342 36.344C88.5222 36.344 90.2502 36.312 91.6582 36.136L91.6982 36.624C90.2582 36.84 88.5782 36.888 87.3062 36.896ZM88.1462 34.12H88.7862V36.584H88.1462V34.12ZM89.9542 34.12H90.6022V36.584H89.9542V34.12ZM97.3936 33.648H97.9776V34.048C97.9776 35.432 96.5696 36.424 95.0656 36.68L94.8016 36.144C96.1216 35.944 97.3936 35.08 97.3936 34.048V33.648ZM97.5136 33.648H98.0896V34.048C98.0896 35.056 99.3776 35.944 100.682 36.144L100.418 36.68C98.9296 36.424 97.5136 35.416 97.5136 34.048V33.648ZM97.3936 37.872H98.0496V40.624H97.3936V37.872ZM94.4736 37.464H101.01V38.016H94.4736V37.464ZM107.552 39.456V40H104.48V39.456H105.708V35.548C105.708 35.4307 105.712 35.312 105.72 35.192L104.7 36.068C104.665 36.0973 104.631 36.116 104.596 36.124C104.561 36.1293 104.529 36.1293 104.5 36.124C104.471 36.1187 104.443 36.108 104.416 36.092C104.392 36.076 104.373 36.0587 104.36 36.04L104.136 35.732L105.844 34.256H106.424V39.456H107.552ZM108.512 37.088H115.064V37.632H108.512V37.088ZM111.504 37.424H112.168V39.088H111.504V37.424ZM109.352 33.728H114.216V36.272H109.352V33.728ZM113.56 34.264H110V35.736H113.56V34.264ZM109.344 39.92H114.336V40.464H109.344V39.92ZM109.344 38.392H110V40.112H109.344V38.392ZM121.376 33.392H122.016V40.624H121.376V33.392ZM118.744 35.984H120.128V36.536H118.744V35.984ZM119.928 33.56H120.552V40.256H119.928V33.56ZM117.352 34.512H117.864V35.432C117.864 37.016 117.256 38.512 116.192 39.184L115.784 38.688C116.792 38.08 117.352 36.76 117.352 35.432V34.512ZM117.488 34.512H118V35.432C118 36.688 118.544 37.944 119.536 38.52L119.128 39.008C118.072 38.368 117.488 36.944 117.488 35.432V34.512ZM115.984 34.232H119.288V34.784H115.984V34.232Z" fill="black"/>
<rect width="80.7143" height="64" transform="translate(161.428 28)" fill="white"/>
<rect width="24" height="24" transform="translate(189.786 30)" fill="white"/>
<rect width="80.7143" height="64" transform="translate(242.143 28)" fill="white"/>
<rect width="24" height="24" transform="translate(270.5 30)" fill="white"/>
<rect width="80.7143" height="64" transform="translate(322.857 28)" fill="white"/>
<rect width="24" height="24" transform="translate(351.214 30)" fill="white"/>
<rect width="80.7143" height="64" transform="translate(403.571 28)" fill="white"/>
<rect width="24" height="24" transform="translate(431.928 30)" fill="white"/>
<rect width="80.7143" height="64" transform="translate(484.286 28)" fill="white"/>
<rect width="24" height="24" transform="translate(512.643 30)" fill="white"/>
</g>
<rect x="163" y="30" width="76.7143" height="14" rx="2" fill="#FFF3CA"/>
<path d="M172.664 33.392H173.336V37.136H172.664V33.392ZM168.616 37.488H173.336V39.232H169.288V40.32H168.64V38.736H172.672V38.016H168.616V37.488ZM168.64 40.016H173.6V40.544H168.64V40.016ZM167.72 33.88H171.6V34.408H167.72V33.88ZM167.592 36.896L167.52 36.344C168.808 36.344 170.536 36.312 171.944 36.136L171.984 36.624C170.544 36.84 168.864 36.888 167.592 36.896ZM168.432 34.12H169.072V36.584H168.432V34.12ZM170.24 34.12H170.888V36.584H170.24V34.12ZM177.679 33.648H178.263V34.048C178.263 35.432 176.855 36.424 175.351 36.68L175.087 36.144C176.407 35.944 177.679 35.08 177.679 34.048V33.648ZM177.799 33.648H178.375V34.048C178.375 35.056 179.663 35.944 180.967 36.144L180.703 36.68C179.215 36.424 177.799 35.416 177.799 34.048V33.648ZM177.679 37.872H178.335V40.624H177.679V37.872ZM174.759 37.464H181.295V38.016H174.759V37.464ZM187.838 39.456V40H184.766V39.456H185.994V35.548C185.994 35.4307 185.998 35.312 186.006 35.192L184.986 36.068C184.951 36.0973 184.916 36.116 184.882 36.124C184.847 36.1293 184.815 36.1293 184.786 36.124C184.756 36.1187 184.728 36.108 184.702 36.092C184.678 36.076 184.659 36.0587 184.646 36.04L184.422 35.732L186.13 34.256H186.71V39.456H187.838ZM188.798 37.088H195.35V37.632H188.798V37.088ZM191.79 37.424H192.454V39.088H191.79V37.424ZM189.638 33.728H194.502V36.272H189.638V33.728ZM193.846 34.264H190.286V35.736H193.846V34.264ZM189.63 39.92H194.622V40.464H189.63V39.92ZM189.63 38.392H190.286V40.112H189.63V38.392ZM201.662 33.392H202.302V40.624H201.662V33.392ZM199.03 35.984H200.414V36.536H199.03V35.984ZM200.214 33.56H200.838V40.256H200.214V33.56ZM197.638 34.512H198.15V35.432C198.15 37.016 197.542 38.512 196.478 39.184L196.07 38.688C197.078 38.08 197.638 36.76 197.638 35.432V34.512ZM197.774 34.512H198.286V35.432C198.286 36.688 198.83 37.944 199.822 38.52L199.414 39.008C198.358 38.368 197.774 36.944 197.774 35.432V34.512ZM196.27 34.232H199.574V34.784H196.27V34.232Z" fill="black"/>
<rect x="486" y="30" width="76.7143" height="14" rx="2" fill="#EBEFF0"/>
<path d="M493.328 37.48H493.992V39.28H493.328V37.48ZM493.664 33.864C495.192 33.864 496.288 34.608 496.288 35.76C496.288 36.912 495.192 37.656 493.664 37.656C492.136 37.656 491.032 36.912 491.032 35.76C491.032 34.608 492.136 33.864 493.664 33.864ZM493.664 34.392C492.512 34.392 491.672 34.936 491.672 35.76C491.672 36.584 492.512 37.128 493.664 37.128C494.808 37.128 495.648 36.584 495.648 35.76C495.648 34.936 494.808 34.392 493.664 34.392ZM490.4 39.152H496.952V39.704H490.4V39.152ZM502.703 33.392H503.367V37.248H502.703V33.392ZM503.183 35.08H504.439V35.632H503.183V35.08ZM498.087 36.456H498.647C500.135 36.456 500.975 36.408 501.943 36.216L502.015 36.752C501.023 36.96 500.167 37.008 498.647 37.008H498.087V36.456ZM498.087 33.864H501.271V34.408H498.743V36.832H498.087V33.864ZM498.807 37.64H499.463V38.528H502.711V37.64H503.367V40.504H498.807V37.64ZM499.463 39.056V39.96H502.711V39.056H499.463ZM505.919 36.672H510.927V37.216H505.919V36.672ZM505.119 39.144H511.671V39.696H505.119V39.144ZM508.055 37.008H508.711V39.32H508.055V37.008ZM505.919 34H506.583V36.912H505.919V34ZM513.318 37.288H518.286V37.824H513.318V37.288ZM512.478 39.144H519.03V39.696H512.478V39.144ZM513.318 34.008H518.206V34.552H513.99V37.456H513.318V34.008ZM513.774 35.624H518.054V36.152H513.774V35.624ZM527.38 33.392H528.02V40.624H527.38V33.392ZM524.748 35.984H526.132V36.536H524.748V35.984ZM525.932 33.56H526.556V40.256H525.932V33.56ZM523.356 34.512H523.868V35.432C523.868 37.016 523.26 38.512 522.196 39.184L521.788 38.688C522.796 38.08 523.356 36.76 523.356 35.432V34.512ZM523.492 34.512H524.004V35.432C524.004 36.688 524.548 37.944 525.54 38.52L525.132 39.008C524.076 38.368 523.492 36.944 523.492 35.432V34.512ZM521.988 34.232H525.292V34.784H521.988V34.232ZM532.172 36.992H532.836V38.088H532.172V36.992ZM529.244 36.6H535.772V37.112H529.244V36.6ZM532.18 33.344H532.836V34.224H532.18V33.344ZM532.148 34.288H532.732V34.4C532.732 35.536 531.38 36.144 529.78 36.28L529.588 35.768C531.012 35.68 532.148 35.176 532.148 34.4V34.288ZM532.284 34.288H532.868V34.4C532.868 35.176 534.004 35.68 535.42 35.768L535.228 36.28C533.628 36.144 532.284 35.536 532.284 34.4V34.288ZM529.908 34.024H535.108V34.528H529.908V34.024ZM530.028 37.768H534.94V39.36H530.7V40.232H530.044V38.888H534.284V38.272H530.028V37.768ZM530.044 40.04H535.156V40.544H530.044V40.04Z" fill="black"/>
<rect x="83" y="67" width="76.7143" height="14" rx="2" fill="#EBEFF0"/>
<path d="M92.888 70.392H93.528V77.624H92.888V70.392ZM91.72 73.296H93.104V73.84H91.72V73.296ZM89.848 71.32H90.488C90.488 73.184 89.848 74.912 87.784 76.072L87.392 75.6C89.208 74.584 89.848 73.12 89.848 71.448V71.32ZM87.672 71.32H90.072V71.872H87.672V71.32ZM91.28 70.584H91.912V77.272H91.28V70.584ZM95.1914 70.752H95.8474V73.936H95.1914V70.752ZM95.1914 73.776H95.7194C96.8954 73.776 97.7754 73.728 98.7834 73.528L98.8714 74.072C97.8234 74.28 96.9194 74.32 95.7194 74.32H95.1914V73.776ZM100.039 70.392H100.703V74.648H100.039V70.392ZM98.0154 71.192H100.223V71.72H98.0154V71.192ZM98.0154 72.48H100.223V73H98.0154V72.48ZM96.0634 74.976H100.703V77.528H96.0634V74.976ZM100.055 75.504H96.7114V76.992H100.055V75.504ZM102.919 73.672H107.927V74.216H102.919V73.672ZM102.119 76.144H108.671V76.696H102.119V76.144ZM105.055 74.008H105.711V76.32H105.055V74.008ZM102.919 71H103.583V73.912H102.919V71ZM110.318 74.288H115.286V74.824H110.318V74.288ZM109.478 76.144H116.03V76.696H109.478V76.144ZM110.318 71.008H115.206V71.552H110.99V74.456H110.318V71.008ZM110.774 72.624H115.054V73.152H110.774V72.624ZM124.38 70.392H125.02V77.624H124.38V70.392ZM121.748 72.984H123.132V73.536H121.748V72.984ZM122.932 70.56H123.556V77.256H122.932V70.56ZM120.356 71.512H120.868V72.432C120.868 74.016 120.26 75.512 119.196 76.184L118.788 75.688C119.796 75.08 120.356 73.76 120.356 72.432V71.512ZM120.492 71.512H121.004V72.432C121.004 73.688 121.548 74.944 122.54 75.52L122.132 76.008C121.076 75.368 120.492 73.944 120.492 72.432V71.512ZM118.988 71.232H122.292V71.784H118.988V71.232ZM129.172 73.992H129.836V75.088H129.172V73.992ZM126.244 73.6H132.772V74.112H126.244V73.6ZM129.18 70.344H129.836V71.224H129.18V70.344ZM129.148 71.288H129.732V71.4C129.732 72.536 128.38 73.144 126.78 73.28L126.588 72.768C128.012 72.68 129.148 72.176 129.148 71.4V71.288ZM129.284 71.288H129.868V71.4C129.868 72.176 131.004 72.68 132.42 72.768L132.228 73.28C130.628 73.144 129.284 72.536 129.284 71.4V71.288ZM126.908 71.024H132.108V71.528H126.908V71.024ZM127.028 74.768H131.94V76.36H127.7V77.232H127.044V75.888H131.284V75.272H127.028V74.768ZM127.044 77.04H132.156V77.544H127.044V77.04Z" fill="black"/>
<rect x="405" y="30" width="76.7143" height="14" rx="2" fill="#D2ECFF"/>
<path d="M410.176 34.096H414.768V34.64H410.176V34.096ZM409.392 39.096H415.928V39.64H409.392V39.096ZM414.496 34.096H415.144V34.784C415.144 35.664 415.144 36.656 414.848 38.136L414.184 38.056C414.496 36.656 414.496 35.64 414.496 34.784V34.096ZM414.64 35.832V36.336L410.08 36.592L409.976 36.016L414.64 35.832ZM411.936 37.224H412.6V39.296H411.936V37.224ZM417.583 36.856H422.551V37.4H417.583V36.856ZM416.759 39.096H423.311V39.648H416.759V39.096ZM417.583 34.056H422.479V34.608H418.247V37.096H417.583V34.056ZM429.383 33.384H430.047V40.632H429.383V33.384ZM424.535 38.336H425.135C426.343 38.336 427.423 38.288 428.703 38.08L428.775 38.624C427.463 38.84 426.375 38.888 425.135 38.888H424.535V38.336ZM424.519 34.064H427.863V36.648H425.199V38.544H424.535V36.104H427.191V34.608H424.519V34.064ZM433.118 37.704H433.782V40.624H433.118V37.704ZM435.702 37.704H436.374V40.624H435.702V37.704ZM431.47 37.616H438.03V38.16H431.47V37.616ZM432.294 33.672H432.958V34.64H436.534V33.672H437.19V36.768H432.294V33.672ZM432.958 35.184V36.216H436.534V35.184H432.958Z" fill="black"/>
<rect x="244" y="30" width="76.7143" height="14" rx="2" fill="#FFF3CA"/>
<path d="M253.664 33.392H254.336V37.136H253.664V33.392ZM249.616 37.488H254.336V39.232H250.288V40.32H249.64V38.736H253.672V38.016H249.616V37.488ZM249.64 40.016H254.6V40.544H249.64V40.016ZM248.72 33.88H252.6V34.408H248.72V33.88ZM248.592 36.896L248.52 36.344C249.808 36.344 251.536 36.312 252.944 36.136L252.984 36.624C251.544 36.84 249.864 36.888 248.592 36.896ZM249.432 34.12H250.072V36.584H249.432V34.12ZM251.24 34.12H251.888V36.584H251.24V34.12ZM258.679 33.648H259.263V34.048C259.263 35.432 257.855 36.424 256.351 36.68L256.087 36.144C257.407 35.944 258.679 35.08 258.679 34.048V33.648ZM258.799 33.648H259.375V34.048C259.375 35.056 260.663 35.944 261.967 36.144L261.703 36.68C260.215 36.424 258.799 35.416 258.799 34.048V33.648ZM258.679 37.872H259.335V40.624H258.679V37.872ZM255.759 37.464H262.295V38.016H255.759V37.464ZM268.838 39.456V40H265.766V39.456H266.994V35.548C266.994 35.4307 266.998 35.312 267.006 35.192L265.986 36.068C265.951 36.0973 265.916 36.116 265.882 36.124C265.847 36.1293 265.815 36.1293 265.786 36.124C265.756 36.1187 265.728 36.108 265.702 36.092C265.678 36.076 265.659 36.0587 265.646 36.04L265.422 35.732L267.13 34.256H267.71V39.456H268.838ZM269.798 37.088H276.35V37.632H269.798V37.088ZM272.79 37.424H273.454V39.088H272.79V37.424ZM270.638 33.728H275.502V36.272H270.638V33.728ZM274.846 34.264H271.286V35.736H274.846V34.264ZM270.63 39.92H275.622V40.464H270.63V39.92ZM270.63 38.392H271.286V40.112H270.63V38.392ZM282.662 33.392H283.302V40.624H282.662V33.392ZM280.03 35.984H281.414V36.536H280.03V35.984ZM281.214 33.56H281.838V40.256H281.214V33.56ZM278.638 34.512H279.15V35.432C279.15 37.016 278.542 38.512 277.478 39.184L277.07 38.688C278.078 38.08 278.638 36.76 278.638 35.432V34.512ZM278.774 34.512H279.286V35.432C279.286 36.688 279.83 37.944 280.822 38.52L280.414 39.008C279.358 38.368 278.774 36.944 278.774 35.432V34.512ZM277.27 34.232H280.574V34.784H277.27V34.232Z" fill="black"/>
<rect x="325" y="30" width="76.7143" height="14" rx="2" fill="#FFF3CA"/>
<path d="M334.664 33.392H335.336V37.136H334.664V33.392ZM330.616 37.488H335.336V39.232H331.288V40.32H330.64V38.736H334.672V38.016H330.616V37.488ZM330.64 40.016H335.6V40.544H330.64V40.016ZM329.72 33.88H333.6V34.408H329.72V33.88ZM329.592 36.896L329.52 36.344C330.808 36.344 332.536 36.312 333.944 36.136L333.984 36.624C332.544 36.84 330.864 36.888 329.592 36.896ZM330.432 34.12H331.072V36.584H330.432V34.12ZM332.24 34.12H332.888V36.584H332.24V34.12ZM339.679 33.648H340.263V34.048C340.263 35.432 338.855 36.424 337.351 36.68L337.087 36.144C338.407 35.944 339.679 35.08 339.679 34.048V33.648ZM339.799 33.648H340.375V34.048C340.375 35.056 341.663 35.944 342.967 36.144L342.703 36.68C341.215 36.424 339.799 35.416 339.799 34.048V33.648ZM339.679 37.872H340.335V40.624H339.679V37.872ZM336.759 37.464H343.295V38.016H336.759V37.464ZM349.838 39.456V40H346.766V39.456H347.994V35.548C347.994 35.4307 347.998 35.312 348.006 35.192L346.986 36.068C346.951 36.0973 346.916 36.116 346.882 36.124C346.847 36.1293 346.815 36.1293 346.786 36.124C346.756 36.1187 346.728 36.108 346.702 36.092C346.678 36.076 346.659 36.0587 346.646 36.04L346.422 35.732L348.13 34.256H348.71V39.456H349.838ZM350.798 37.088H357.35V37.632H350.798V37.088ZM353.79 37.424H354.454V39.088H353.79V37.424ZM351.638 33.728H356.502V36.272H351.638V33.728ZM355.846 34.264H352.286V35.736H355.846V34.264ZM351.63 39.92H356.622V40.464H351.63V39.92ZM351.63 38.392H352.286V40.112H351.63V38.392ZM363.662 33.392H364.302V40.624H363.662V33.392ZM361.03 35.984H362.414V36.536H361.03V35.984ZM362.214 33.56H362.838V40.256H362.214V33.56ZM359.638 34.512H360.15V35.432C360.15 37.016 359.542 38.512 358.478 39.184L358.07 38.688C359.078 38.08 359.638 36.76 359.638 35.432V34.512ZM359.774 34.512H360.286V35.432C360.286 36.688 360.83 37.944 361.822 38.52L361.414 39.008C360.358 38.368 359.774 36.944 359.774 35.432V34.512ZM358.27 34.232H361.574V34.784H358.27V34.232Z" fill="black"/>
<rect x="244.286" y="49" width="76.7143" height="14" rx="2" fill="#FFE6E6"/>
<path d="M248.686 58.152H255.238V58.704H248.686V58.152ZM251.614 56.28H252.278V58.304H251.614V56.28ZM249.446 52.992H254.438V56.4H249.446V52.992ZM253.798 53.528H250.094V55.864H253.798V53.528ZM260.989 52.392H261.653V56.632H260.989V52.392ZM261.469 54.216H262.725V54.776H261.469V54.216ZM258.989 52.856H259.685C259.685 54.68 258.413 55.984 256.301 56.56L256.029 56.04C257.901 55.528 258.989 54.48 258.989 53.144V52.856ZM256.349 52.856H259.357V53.392H256.349V52.856ZM256.957 56.968H261.653V59.624H260.989V57.504H256.957V56.968ZM264.18 53.096H268.772V53.64H264.18V53.096ZM263.396 58.096H269.932V58.64H263.396V58.096ZM268.5 53.096H269.148V53.784C269.148 54.664 269.148 55.656 268.852 57.136L268.188 57.056C268.5 55.656 268.5 54.64 268.5 53.784V53.096ZM268.644 54.832V55.336L264.084 55.592L263.98 55.016L268.644 54.832ZM265.94 56.224H266.604V58.296H265.94V56.224Z" fill="black"/>
<rect x="83" y="49" width="76.7143" height="14" rx="2" fill="#FFE6E6"/>
<path d="M87.4 58.152H93.952V58.704H87.4V58.152ZM90.328 56.28H90.992V58.304H90.328V56.28ZM88.16 52.992H93.152V56.4H88.16V52.992ZM92.512 53.528H88.808V55.864H92.512V53.528ZM99.7034 52.392H100.367V56.632H99.7034V52.392ZM100.183 54.216H101.439V54.776H100.183V54.216ZM97.7034 52.856H98.3994C98.3994 54.68 97.1274 55.984 95.0154 56.56L94.7434 56.04C96.6154 55.528 97.7034 54.48 97.7034 53.144V52.856ZM95.0634 52.856H98.0714V53.392H95.0634V52.856ZM95.6714 56.968H100.367V59.624H99.7034V57.504H95.6714V56.968ZM102.895 53.096H107.487V53.64H102.895V53.096ZM102.111 58.096H108.647V58.64H102.111V58.096ZM107.215 53.096H107.863V53.784C107.863 54.664 107.863 55.656 107.567 57.136L106.903 57.056C107.215 55.656 107.215 54.64 107.215 53.784V53.096ZM107.359 54.832V55.336L102.799 55.592L102.695 55.016L107.359 54.832ZM104.655 56.224H105.319V58.296H104.655V56.224Z" fill="black"/>
<rect x="163" y="49" width="76.7143" height="14" rx="2" fill="#FFE6E6"/>
<path d="M167.4 58.152H173.952V58.704H167.4V58.152ZM170.328 56.28H170.992V58.304H170.328V56.28ZM168.16 52.992H173.152V56.4H168.16V52.992ZM172.512 53.528H168.808V55.864H172.512V53.528ZM179.703 52.392H180.367V56.632H179.703V52.392ZM180.183 54.216H181.439V54.776H180.183V54.216ZM177.703 52.856H178.399C178.399 54.68 177.127 55.984 175.015 56.56L174.743 56.04C176.615 55.528 177.703 54.48 177.703 53.144V52.856ZM175.063 52.856H178.071V53.392H175.063V52.856ZM175.671 56.968H180.367V59.624H179.703V57.504H175.671V56.968ZM182.895 53.096H187.487V53.64H182.895V53.096ZM182.111 58.096H188.647V58.64H182.111V58.096ZM187.215 53.096H187.863V53.784C187.863 54.664 187.863 55.656 187.567 57.136L186.903 57.056C187.215 55.656 187.215 54.64 187.215 53.784V53.096ZM187.359 54.832V55.336L182.799 55.592L182.695 55.016L187.359 54.832ZM184.655 56.224H185.319V58.296H184.655V56.224Z" fill="black"/>
<rect x="3" y="30" width="76.7143" height="14" rx="2" fill="#FFF3CA"/>
<path d="M12.664 33.392H13.336V37.136H12.664V33.392ZM8.616 37.488H13.336V39.232H9.288V40.32H8.64V38.736H12.672V38.016H8.616V37.488ZM8.64 40.016H13.6V40.544H8.64V40.016ZM7.72 33.88H11.6V34.408H7.72V33.88ZM7.592 36.896L7.52 36.344C8.808 36.344 10.536 36.312 11.944 36.136L11.984 36.624C10.544 36.84 8.864 36.888 7.592 36.896ZM8.432 34.12H9.072V36.584H8.432V34.12ZM10.24 34.12H10.888V36.584H10.24V34.12ZM17.6794 33.648H18.2634V34.048C18.2634 35.432 16.8554 36.424 15.3514 36.68L15.0874 36.144C16.4074 35.944 17.6794 35.08 17.6794 34.048V33.648ZM17.7994 33.648H18.3754V34.048C18.3754 35.056 19.6634 35.944 20.9674 36.144L20.7034 36.68C19.2154 36.424 17.7994 35.416 17.7994 34.048V33.648ZM17.6794 37.872H18.3354V40.624H17.6794V37.872ZM14.7594 37.464H21.2954V38.016H14.7594V37.464ZM27.8376 39.456V40H24.7656V39.456H25.9936V35.548C25.9936 35.4307 25.9976 35.312 26.0056 35.192L24.9856 36.068C24.951 36.0973 24.9163 36.116 24.8816 36.124C24.847 36.1293 24.815 36.1293 24.7856 36.124C24.7563 36.1187 24.7283 36.108 24.7016 36.092C24.6776 36.076 24.659 36.0587 24.6456 36.04L24.4216 35.732L26.1296 34.256H26.7096V39.456H27.8376ZM28.7983 37.088H35.3503V37.632H28.7983V37.088ZM31.7903 37.424H32.4543V39.088H31.7903V37.424ZM29.6383 33.728H34.5023V36.272H29.6383V33.728ZM33.8463 34.264H30.2863V35.736H33.8463V34.264ZM29.6303 39.92H34.6223V40.464H29.6303V39.92ZM29.6303 38.392H30.2863V40.112H29.6303V38.392ZM41.6616 33.392H42.3016V40.624H41.6616V33.392ZM39.0296 35.984H40.4136V36.536H39.0296V35.984ZM40.2136 33.56H40.8376V40.256H40.2136V33.56ZM37.6376 34.512H38.1496V35.432C38.1496 37.016 37.5416 38.512 36.4776 39.184L36.0696 38.688C37.0776 38.08 37.6376 36.76 37.6376 35.432V34.512ZM37.7736 34.512H38.2856V35.432C38.2856 36.688 38.8296 37.944 39.8216 38.52L39.4136 39.008C38.3576 38.368 37.7736 36.944 37.7736 35.432V34.512ZM36.2696 34.232H39.5736V34.784H36.2696V34.232Z" fill="black"/>
<defs>
<clipPath id="clip0_436_1425">
<rect width="565" height="64" fill="white" transform="translate(0 28)"/>
</clipPath>
</defs>
</svg>
